<mxfile host="app.diagrams.net" agent="Mozilla/5.0 (Macintosh; Intel Mac OS X 10_15_7) AppleWebKit/605.1.15 (KHTML, like Gecko) Version/18.0 Safari/605.1.15" version="26.0.11">
  <diagram name="Page-1" id="PBhhmzrZJYDXORCj-sbf">
    <mxGraphModel dx="984" dy="667" grid="1" gridSize="10" guides="1" tooltips="1" connect="1" arrows="1" fold="1" page="1" pageScale="1" pageWidth="850" pageHeight="1100" math="0" shadow="0">
      <root>
        <mxCell id="0" />
        <mxCell id="1" parent="0" />
        <mxCell id="JIzOSK97YrJrw8fV8uZ4-10" value="" style="edgeStyle=orthogonalEdgeStyle;rounded=0;orthogonalLoop=1;jettySize=auto;html=1;" edge="1" parent="1" source="JIzOSK97YrJrw8fV8uZ4-1" target="JIzOSK97YrJrw8fV8uZ4-2">
          <mxGeometry relative="1" as="geometry" />
        </mxCell>
        <mxCell id="JIzOSK97YrJrw8fV8uZ4-1" value="&lt;span style=&quot;text-align: start;&quot;&gt;&lt;font style=&quot;font-size: 12px;&quot;&gt;User types a character&lt;/font&gt;&lt;/span&gt;" style="rounded=0;whiteSpace=wrap;html=1;" vertex="1" parent="1">
          <mxGeometry x="360" y="60" width="120" height="60" as="geometry" />
        </mxCell>
        <mxCell id="JIzOSK97YrJrw8fV8uZ4-11" value="" style="edgeStyle=orthogonalEdgeStyle;rounded=0;orthogonalLoop=1;jettySize=auto;html=1;" edge="1" parent="1" source="JIzOSK97YrJrw8fV8uZ4-2" target="JIzOSK97YrJrw8fV8uZ4-3">
          <mxGeometry relative="1" as="geometry" />
        </mxCell>
        <mxCell id="JIzOSK97YrJrw8fV8uZ4-2" value="Hardware detects it" style="rounded=0;whiteSpace=wrap;html=1;" vertex="1" parent="1">
          <mxGeometry x="360" y="160" width="120" height="60" as="geometry" />
        </mxCell>
        <mxCell id="JIzOSK97YrJrw8fV8uZ4-13" value="" style="edgeStyle=orthogonalEdgeStyle;rounded=0;orthogonalLoop=1;jettySize=auto;html=1;" edge="1" parent="1" source="JIzOSK97YrJrw8fV8uZ4-3" target="JIzOSK97YrJrw8fV8uZ4-4">
          <mxGeometry relative="1" as="geometry" />
        </mxCell>
        <mxCell id="JIzOSK97YrJrw8fV8uZ4-3" value="&lt;font style=&quot;font-size: 12px;&quot;&gt;&lt;span style=&quot;text-align: start;&quot; data-end=&quot;339&quot; data-start=&quot;299&quot;&gt;USART RX Complete Interrupt triggers&lt;/span&gt;&lt;span style=&quot;text-align: start;&quot;&gt;, notifying the system&lt;/span&gt;&lt;/font&gt;" style="rounded=0;whiteSpace=wrap;html=1;" vertex="1" parent="1">
          <mxGeometry x="360" y="260" width="120" height="60" as="geometry" />
        </mxCell>
        <mxCell id="JIzOSK97YrJrw8fV8uZ4-12" value="" style="edgeStyle=orthogonalEdgeStyle;rounded=0;orthogonalLoop=1;jettySize=auto;html=1;" edge="1" parent="1" source="JIzOSK97YrJrw8fV8uZ4-4" target="JIzOSK97YrJrw8fV8uZ4-5">
          <mxGeometry relative="1" as="geometry" />
        </mxCell>
        <mxCell id="JIzOSK97YrJrw8fV8uZ4-4" value="&lt;font style=&quot;font-size: 12px;&quot;&gt;&lt;font&gt;&lt;span style=&quot;text-align: start;&quot;&gt;&lt;font&gt;usart_read_callback() function is called,&lt;/font&gt;&lt;font face=&quot;Helvetica&quot;&gt;&amp;nbsp;&lt;/font&gt;&lt;/span&gt;&lt;/font&gt;&lt;span style=&quot;text-align: start;&quot;&gt;handling the received character&lt;/span&gt;&lt;/font&gt;" style="rounded=0;whiteSpace=wrap;html=1;" vertex="1" parent="1">
          <mxGeometry x="360" y="360" width="120" height="60" as="geometry" />
        </mxCell>
        <mxCell id="JIzOSK97YrJrw8fV8uZ4-14" value="" style="edgeStyle=orthogonalEdgeStyle;rounded=0;orthogonalLoop=1;jettySize=auto;html=1;" edge="1" parent="1" source="JIzOSK97YrJrw8fV8uZ4-5" target="JIzOSK97YrJrw8fV8uZ4-6">
          <mxGeometry relative="1" as="geometry" />
        </mxCell>
        <mxCell id="JIzOSK97YrJrw8fV8uZ4-5" value="&lt;code style=&quot;text-align: start;&quot; data-end=&quot;519&quot; data-start=&quot;483&quot;&gt;&lt;font face=&quot;Helvetica&quot;&gt;circular_buf_put(cbufRx, latestRx),&amp;nbsp;&lt;/font&gt;&lt;/code&gt;&lt;span style=&quot;text-align: start;&quot;&gt;c&lt;/span&gt;&lt;span style=&quot;text-align: start;&quot;&gt;haracter is stored in&lt;font face=&quot;Helvetica&quot;&gt;&amp;nbsp;cbufRX&lt;/font&gt;&lt;/span&gt;" style="rounded=0;whiteSpace=wrap;html=1;" vertex="1" parent="1">
          <mxGeometry x="350" y="460" width="140" height="60" as="geometry" />
        </mxCell>
        <mxCell id="JIzOSK97YrJrw8fV8uZ4-6" value="&lt;font style=&quot;font-size: 12px;&quot;&gt;&lt;code style=&quot;text-align: start;&quot; data-end=&quot;551&quot; data-start=&quot;526&quot;&gt;&lt;font face=&quot;Helvetica&quot;&gt;_usart_read_buffer_job()&lt;/font&gt;&lt;/code&gt;&lt;span style=&quot;text-align: start;&quot;&gt;&amp;nbsp;prepares for the next character&lt;/span&gt;&lt;/font&gt;" style="rounded=0;whiteSpace=wrap;html=1;" vertex="1" parent="1">
          <mxGeometry x="320" y="560" width="200" height="60" as="geometry" />
        </mxCell>
        <mxCell id="JIzOSK97YrJrw8fV8uZ4-7" value="From SerialConsole.C" style="text;html=1;align=center;verticalAlign=middle;whiteSpace=wrap;rounded=0;" vertex="1" parent="1">
          <mxGeometry x="510" y="375" width="60" height="30" as="geometry" />
        </mxCell>
        <mxCell id="JIzOSK97YrJrw8fV8uZ4-8" value="From circular_buffer.C" style="text;html=1;align=center;verticalAlign=middle;whiteSpace=wrap;rounded=0;" vertex="1" parent="1">
          <mxGeometry x="510" y="475" width="60" height="30" as="geometry" />
        </mxCell>
        <mxCell id="JIzOSK97YrJrw8fV8uZ4-9" value="From usart_interrupt.C" style="text;html=1;align=center;verticalAlign=middle;whiteSpace=wrap;rounded=0;" vertex="1" parent="1">
          <mxGeometry x="540" y="575" width="60" height="30" as="geometry" />
        </mxCell>
      </root>
    </mxGraphModel>
  </diagram>
</mxfile>
